<svg xmlns="http://www.w3.org/2000/svg" width="16" height="16" fill="none" viewBox="0 0 16 16">
  <path fill="#3BC9DB" d="M7.522 2.82c.608-.62 2.2-1.75 3.879-1.468.707.219 1.357.56 1.944 1.04 1.081.884 1.622 2.215 1.622 3.995 0 2.237-.83 4.22-2.49 5.95l-.004.004.004-.001c-1.665 1.729-3.655 2.593-5.97 2.593H6.41a4.686 4.686 0 01-.662-.04 6.12 6.12 0 01-1.149-.245c1.684.284 3.28-.855 3.884-1.473l.008-.01c.591-.565 1.097-1.28 1.517-2.144.42-.865.743-1.84.972-2.927.23-1.087.344-2.133.344-3.137 0-.98-.156-1.72-.468-2.222-.311-.502-.772-.753-1.383-.753-.694 0-1.344.269-1.95.839z"/>
  <path fill="#212A32" d="M2.655 13.611c-1.081-.884-1.622-2.216-1.622-3.996 0-2.238.83-4.221 2.49-5.95C5.181 1.934 7.174 1.07 9.501 1.07c.682-.032 1.516.161 1.899.282-1.692-.285-3.295.866-3.892 1.483-.591.565-1.097 1.28-1.517 2.145-.42.865-.743 1.841-.972 2.928a15.24 15.24 0 00-.344 3.12v.015c0 .98.156 1.72.468 2.222.311.502.772.753 1.383.753.696 0 1.348-.27 1.956-.843-.604.618-2.2 1.757-3.884 1.473 0 0-1.052-.307-1.944-1.037z"/>
</svg>
